<?xml version="1.0" standalone="no"?>
<svg xmlns:xlink="http://www.w3.org/1999/xlink" id="wave" style="transform:rotate(0deg); transition: 0.3s" viewBox="0 0 1440 490" version="1.1" xmlns="http://www.w3.org/2000/svg"><defs><linearGradient id="sw-gradient-0" x1="0" x2="0" y1="1" y2="0"><stop stop-color="rgba(157, 87, 139, 1)" offset="0%"/><stop stop-color="rgba(158, 86, 141, 1)" offset="100%"/></linearGradient></defs><path style="transform:translate(0, 0px); opacity:1" fill="url(#sw-gradient-0)" d="M0,392L48,400.2C96,408,192,425,288,432.8C384,441,480,441,576,432.8C672,425,768,408,864,383.8C960,359,1056,327,1152,302.2C1248,278,1344,261,1440,285.8C1536,310,1632,376,1728,383.8C1824,392,1920,343,2016,318.5C2112,294,2208,294,2304,269.5C2400,245,2496,196,2592,163.3C2688,131,2784,114,2880,106.2C2976,98,3072,98,3168,106.2C3264,114,3360,131,3456,163.3C3552,196,3648,245,3744,277.7C3840,310,3936,327,4032,334.8C4128,343,4224,343,4320,334.8C4416,327,4512,310,4608,326.7C4704,343,4800,392,4896,375.7C4992,359,5088,278,5184,236.8C5280,196,5376,196,5472,236.8C5568,278,5664,359,5760,400.2C5856,441,5952,441,6048,367.5C6144,294,6240,147,6336,130.7C6432,114,6528,229,6624,285.8C6720,343,6816,343,6864,343L6912,343L6912,490L6864,490C6816,490,6720,490,6624,490C6528,490,6432,490,6336,490C6240,490,6144,490,6048,490C5952,490,5856,490,5760,490C5664,490,5568,490,5472,490C5376,490,5280,490,5184,490C5088,490,4992,490,4896,490C4800,490,4704,490,4608,490C4512,490,4416,490,4320,490C4224,490,4128,490,4032,490C3936,490,3840,490,3744,490C3648,490,3552,490,3456,490C3360,490,3264,490,3168,490C3072,490,2976,490,2880,490C2784,490,2688,490,2592,490C2496,490,2400,490,2304,490C2208,490,2112,490,2016,490C1920,490,1824,490,1728,490C1632,490,1536,490,1440,490C1344,490,1248,490,1152,490C1056,490,960,490,864,490C768,490,672,490,576,490C480,490,384,490,288,490C192,490,96,490,48,490L0,490Z"/></svg>